<svg xmlns="http://www.w3.org/2000/svg" xmlns:xlink="http://www.w3.org/1999/xlink" width="500" zoomAndPan="magnify" viewBox="0 0 375 374.999991" height="500" preserveAspectRatio="xMidYMid meet" version="1.0"><defs><g/><clipPath id="455c4bced9"><path d="M 91.746094 91.746094 L 282.996094 91.746094 L 282.996094 282.996094 L 91.746094 282.996094 Z M 91.746094 91.746094 " clip-rule="nonzero"/></clipPath><clipPath id="69ef368251"><path d="M 164 132.21875 L 213 132.21875 L 213 199 L 164 199 Z M 164 132.21875 " clip-rule="nonzero"/></clipPath><clipPath id="c5c17412fb"><path d="M 199 132.21875 L 213 132.21875 L 213 146 L 199 146 Z M 199 132.21875 " clip-rule="nonzero"/></clipPath><clipPath id="76595db1a8"><path d="M 142.507812 151 L 234 151 L 234 222 L 142.507812 222 Z M 142.507812 151 " clip-rule="nonzero"/></clipPath><clipPath id="fa8c121dba"><path d="M 142.507812 205 L 234 205 L 234 209 L 142.507812 209 Z M 142.507812 205 " clip-rule="nonzero"/></clipPath><clipPath id="97c69c960e"><path d="M 161 228 L 216 228 L 216 242.46875 L 161 242.46875 Z M 161 228 " clip-rule="nonzero"/></clipPath></defs><rect x="-37.5" width="450" fill="#ffffff" y="-37.499999" height="449.999989" fill-opacity="1"/><rect x="-37.5" width="450" fill="#ffffff" y="-37.499999" height="449.999989" fill-opacity="1"/><rect x="-37.5" width="450" fill="#ffffff" y="-37.499999" height="449.999989" fill-opacity="1"/><g clip-path="url(#455c4bced9)"><path fill="#000000" d="M 277.078125 212.867188 C 274.652344 221.121094 270.953125 228.953125 266.359375 236.164062 C 262.566406 242.035156 258.253906 247.550781 253.40625 252.570312 C 252.78125 253.253906 252.082031 253.867188 251.414062 254.515625 C 250.738281 255.152344 250.082031 255.808594 249.390625 256.425781 L 246.238281 259.167969 L 245.148438 260.035156 L 242.972656 261.773438 C 242.238281 262.335938 241.476562 262.867188 240.730469 263.421875 C 239.253906 264.550781 237.683594 265.542969 236.148438 266.589844 C 235.925781 266.738281 235.691406 266.894531 235.449219 267.058594 C 235.199219 267.207031 234.941406 267.363281 234.667969 267.527344 C 234.125 267.851562 233.542969 268.199219 232.921875 268.570312 C 231.691406 269.34375 230.242188 270.070312 228.671875 270.902344 C 228.277344 271.105469 227.882812 271.328125 227.464844 271.527344 C 227.046875 271.722656 226.617188 271.921875 226.183594 272.125 C 225.308594 272.527344 224.40625 272.945312 223.476562 273.375 C 221.566406 274.121094 219.570312 275.019531 217.398438 275.714844 C 208.820312 278.824219 198.113281 280.746094 187.371094 280.792969 C 176.625 280.746094 165.917969 278.824219 157.339844 275.714844 C 155.167969 275.019531 153.175781 274.121094 151.265625 273.375 C 150.332031 272.945312 149.429688 272.527344 148.558594 272.125 C 148.121094 271.921875 147.695312 271.722656 147.273438 271.527344 C 146.859375 271.328125 146.464844 271.105469 146.066406 270.902344 C 144.5 270.070312 143.046875 269.34375 141.820312 268.570312 C 141.199219 268.199219 140.613281 267.851562 140.074219 267.527344 C 139.800781 267.363281 139.539062 267.207031 139.289062 267.058594 C 139.046875 266.894531 138.816406 266.738281 138.59375 266.589844 C 132.757812 262.765625 127.273438 258.417969 122.289062 253.539062 C 117.03125 248.285156 112.433594 242.40625 108.382812 236.167969 C 103.789062 228.953125 100.085938 221.121094 97.660156 212.867188 C 95.136719 204.640625 93.96875 196.003906 93.894531 187.371094 C 93.96875 178.734375 95.136719 170.101562 97.660156 161.871094 C 100.085938 153.617188 103.789062 145.785156 108.382812 138.574219 C 112.175781 132.703125 116.488281 127.1875 121.332031 122.171875 C 121.960938 121.484375 122.660156 120.871094 123.324219 120.222656 C 124 119.589844 124.660156 118.933594 125.351562 118.3125 L 127.449219 116.484375 L 128.5 115.570312 L 129.589844 114.707031 L 131.765625 112.96875 C 132.503906 112.402344 133.261719 111.871094 134.007812 111.320312 C 135.484375 110.191406 137.054688 109.195312 138.59375 108.152344 C 138.8125 108.003906 139.046875 107.847656 139.289062 107.683594 C 139.539062 107.53125 139.800781 107.375 140.070312 107.210938 C 140.613281 106.886719 141.199219 106.539062 141.820312 106.167969 C 143.046875 105.398438 144.5 104.671875 146.066406 103.835938 C 146.460938 103.632812 146.859375 103.410156 147.273438 103.210938 C 147.695312 103.015625 148.121094 102.816406 148.558594 102.617188 C 149.429688 102.214844 150.332031 101.796875 151.265625 101.367188 C 153.175781 100.617188 155.167969 99.722656 157.339844 99.027344 C 165.917969 95.914062 176.625 93.992188 187.371094 93.949219 C 198.113281 93.992188 208.820312 95.914062 217.398438 99.027344 C 219.570312 99.722656 221.5625 100.617188 223.476562 101.367188 C 224.40625 101.796875 225.308594 102.214844 226.179688 102.617188 C 226.617188 102.816406 227.046875 103.015625 227.464844 103.210938 C 227.882812 103.410156 228.277344 103.632812 228.671875 103.835938 C 230.238281 104.671875 231.691406 105.398438 232.921875 106.167969 C 233.542969 106.539062 234.125 106.886719 234.667969 107.210938 C 234.9375 107.375 235.199219 107.53125 235.449219 107.683594 C 235.691406 107.84375 235.925781 108.003906 236.148438 108.152344 C 241.984375 111.976562 247.46875 116.320312 252.449219 121.203125 C 257.707031 126.453125 262.304688 132.335938 266.355469 138.574219 C 270.953125 145.785156 274.652344 153.617188 277.078125 161.871094 C 279.601562 170.101562 280.769531 178.734375 280.84375 187.371094 C 280.769531 196.003906 279.601562 204.640625 277.078125 212.867188 Z M 282.992188 187.304688 L 282.992188 187.296875 C 282.914062 178.480469 281.726562 169.660156 279.160156 161.246094 C 276.6875 152.808594 272.90625 144.800781 268.1875 137.441406 L 265.921875 134.035156 C 265.921875 134.035156 265.265625 133.117188 264.28125 131.742188 C 263.335938 130.339844 261.886719 128.609375 260.503906 126.832031 C 259.011719 125.144531 257.582031 123.402344 256.382812 122.214844 C 255.214844 120.992188 254.433594 120.179688 254.433594 120.179688 C 254.433594 120.179688 254.238281 119.980469 253.882812 119.640625 C 253.527344 119.296875 253.023438 118.808594 252.414062 118.222656 C 251.230469 117.015625 249.511719 115.5625 247.824219 114.070312 C 246.960938 113.351562 246.070312 112.660156 245.246094 112 C 244.832031 111.671875 244.433594 111.351562 244.054688 111.050781 C 243.664062 110.769531 243.292969 110.5 242.949219 110.253906 C 241.582031 109.265625 240.667969 108.609375 240.667969 108.609375 C 240.667969 108.609375 240.46875 108.445312 240.148438 108.238281 C 239.828125 108.023438 239.402344 107.742188 238.980469 107.457031 C 238.128906 106.886719 237.28125 106.320312 237.28125 106.320312 C 237.054688 106.164062 236.816406 106.003906 236.570312 105.839844 C 236.3125 105.683594 236.046875 105.523438 235.769531 105.355469 C 235.214844 105.019531 234.617188 104.664062 233.984375 104.28125 C 232.726562 103.492188 231.242188 102.742188 229.640625 101.890625 C 229.234375 101.679688 228.832031 101.453125 228.402344 101.246094 C 227.976562 101.046875 227.539062 100.84375 227.09375 100.636719 C 226.199219 100.222656 225.277344 99.792969 224.324219 99.351562 C 222.367188 98.585938 220.328125 97.667969 218.105469 96.953125 C 209.324219 93.765625 198.363281 91.789062 187.371094 91.746094 C 176.375 91.789062 165.414062 93.765625 156.632812 96.953125 C 154.410156 97.667969 152.371094 98.585938 150.417969 99.355469 C 149.460938 99.792969 148.539062 100.222656 147.648438 100.636719 C 147.203125 100.84375 146.761719 101.046875 146.335938 101.246094 C 145.910156 101.453125 145.503906 101.679688 145.101562 101.890625 C 143.496094 102.742188 142.011719 103.492188 140.753906 104.28125 C 140.121094 104.664062 139.523438 105.023438 138.96875 105.355469 C 138.695312 105.523438 138.425781 105.683594 138.171875 105.839844 C 137.921875 106.007812 137.683594 106.164062 137.457031 106.320312 C 137.457031 106.320312 136.609375 106.886719 135.757812 107.457031 C 135.335938 107.742188 134.910156 108.023438 134.59375 108.238281 C 134.269531 108.445312 134.070312 108.609375 134.070312 108.609375 C 134.070312 108.609375 133.160156 109.265625 131.789062 110.253906 C 131.445312 110.5 131.074219 110.769531 130.683594 111.050781 C 130.304688 111.351562 129.90625 111.671875 129.492188 112 C 128.671875 112.660156 127.78125 113.351562 126.914062 114.070312 C 125.226562 115.5625 123.507812 117.015625 122.324219 118.222656 C 121.714844 118.808594 121.210938 119.296875 120.855469 119.640625 C 120.5 119.980469 120.304688 120.179688 120.304688 120.179688 C 120.304688 120.179688 119.527344 120.992188 118.359375 122.214844 C 117.15625 123.402344 115.726562 125.144531 114.234375 126.832031 C 112.851562 128.609375 111.402344 130.339844 110.457031 131.742188 C 109.472656 133.117188 108.820312 134.035156 108.820312 134.035156 L 106.550781 137.441406 C 101.835938 144.800781 98.050781 152.808594 95.582031 161.246094 C 93.011719 169.660156 91.824219 178.480469 91.746094 187.300781 L 91.746094 187.441406 C 91.824219 196.257812 93.011719 205.082031 95.582031 213.492188 C 98.050781 221.929688 101.835938 229.941406 106.550781 237.296875 L 108.820312 240.703125 C 108.820312 240.703125 109.476562 241.621094 110.457031 242.996094 C 111.402344 244.398438 112.851562 246.128906 114.234375 247.90625 C 115.726562 249.59375 117.15625 251.339844 118.359375 252.527344 C 119.527344 253.746094 120.304688 254.558594 120.304688 254.558594 C 120.304688 254.558594 120.5 254.761719 120.855469 255.101562 C 121.210938 255.441406 121.714844 255.933594 122.324219 256.519531 C 123.507812 257.726562 125.226562 259.179688 126.914062 260.671875 C 127.78125 261.390625 128.671875 262.078125 129.492188 262.742188 C 129.90625 263.070312 130.304688 263.386719 130.683594 263.6875 C 131.074219 263.972656 131.445312 264.238281 131.789062 264.484375 C 133.160156 265.472656 134.070312 266.132812 134.070312 266.132812 C 134.070312 266.132812 134.269531 266.292969 134.59375 266.5 C 134.910156 266.714844 135.335938 267 135.757812 267.285156 C 136.609375 267.851562 137.460938 268.421875 137.460938 268.421875 C 137.6875 268.574219 137.921875 268.734375 138.171875 268.902344 C 138.425781 269.058594 138.695312 269.21875 138.96875 269.386719 C 139.523438 269.71875 140.121094 270.078125 140.757812 270.457031 C 142.011719 271.25 143.496094 271.996094 145.101562 272.851562 C 145.503906 273.058594 145.910156 273.289062 146.335938 273.492188 C 146.765625 273.691406 147.203125 273.894531 147.648438 274.105469 C 148.539062 274.515625 149.464844 274.945312 150.417969 275.386719 C 152.371094 276.15625 154.410156 277.070312 156.632812 277.789062 C 165.414062 280.976562 176.375 282.949219 187.371094 282.996094 C 198.363281 282.949219 209.324219 280.976562 218.105469 277.785156 C 220.328125 277.070312 222.367188 276.15625 224.324219 275.386719 C 225.277344 274.945312 226.199219 274.515625 227.09375 274.101562 C 227.539062 273.894531 227.976562 273.691406 228.40625 273.492188 C 228.832031 273.289062 229.238281 273.058594 229.640625 272.851562 C 231.242188 271.996094 232.730469 271.25 233.984375 270.457031 C 234.617188 270.078125 235.214844 269.71875 235.769531 269.386719 C 236.046875 269.21875 236.3125 269.054688 236.570312 268.902344 C 236.816406 268.734375 237.054688 268.574219 237.28125 268.421875 C 237.28125 268.421875 238.128906 267.851562 238.980469 267.285156 C 239.40625 267 239.828125 266.714844 240.148438 266.5 C 240.46875 266.292969 240.667969 266.132812 240.667969 266.132812 C 240.667969 266.132812 241.582031 265.472656 242.949219 264.484375 C 243.292969 264.238281 243.664062 263.972656 244.054688 263.6875 C 244.433594 263.386719 244.832031 263.070312 245.246094 262.742188 C 246.070312 262.078125 246.960938 261.390625 247.824219 260.671875 C 249.511719 259.179688 251.230469 257.726562 252.414062 256.519531 C 253.023438 255.933594 253.527344 255.441406 253.882812 255.101562 C 254.238281 254.761719 254.433594 254.558594 254.433594 254.558594 C 254.433594 254.558594 255.214844 253.746094 256.382812 252.527344 C 257.582031 251.339844 259.011719 249.59375 260.503906 247.90625 C 261.886719 246.128906 263.335938 244.398438 264.28125 242.996094 C 265.265625 241.621094 265.921875 240.703125 265.921875 240.703125 L 268.1875 237.296875 C 272.90625 229.941406 276.6875 221.929688 279.160156 213.492188 C 281.726562 205.078125 282.914062 196.257812 282.992188 187.441406 L 282.992188 187.433594 L 282.996094 187.371094 L 282.992188 187.304688 " fill-opacity="1" fill-rule="nonzero"/></g><g fill="#000000" fill-opacity="1"><g transform="translate(116.522719, 173.126422)"><g><path d="M -6.640625 -8.21875 C -7.265625 -7.4375 -7.644531 -6.710938 -7.78125 -6.046875 C -7.875 -5.546875 -7.835938 -5.128906 -7.671875 -4.796875 C -7.515625 -4.472656 -7.242188 -4.273438 -6.859375 -4.203125 C -6.472656 -4.117188 -6.117188 -4.234375 -5.796875 -4.546875 C -5.472656 -4.859375 -5.128906 -5.316406 -4.765625 -5.921875 C -4.484375 -6.378906 -4.195312 -6.757812 -3.90625 -7.0625 C -3.613281 -7.375 -3.25 -7.601562 -2.8125 -7.75 C -2.382812 -7.90625 -1.878906 -7.925781 -1.296875 -7.8125 C -0.765625 -7.707031 -0.3125 -7.476562 0.0625 -7.125 C 0.445312 -6.769531 0.710938 -6.316406 0.859375 -5.765625 C 1.015625 -5.210938 1.023438 -4.59375 0.890625 -3.90625 C 0.773438 -3.300781 0.5625 -2.722656 0.25 -2.171875 C -0.0507812 -1.617188 -0.414062 -1.148438 -0.84375 -0.765625 L -1.9375 -1.71875 C -1.613281 -2.007812 -1.316406 -2.367188 -1.046875 -2.796875 C -0.785156 -3.234375 -0.617188 -3.644531 -0.546875 -4.03125 C -0.441406 -4.519531 -0.46875 -4.972656 -0.625 -5.390625 C -0.789062 -5.804688 -1.117188 -6.0625 -1.609375 -6.15625 C -1.992188 -6.226562 -2.34375 -6.132812 -2.65625 -5.875 C -2.976562 -5.625 -3.300781 -5.242188 -3.625 -4.734375 C -3.945312 -4.203125 -4.25 -3.769531 -4.53125 -3.4375 C -4.8125 -3.113281 -5.160156 -2.851562 -5.578125 -2.65625 C -6.003906 -2.457031 -6.5 -2.414062 -7.0625 -2.53125 C -7.875 -2.695312 -8.472656 -3.101562 -8.859375 -3.75 C -9.242188 -4.40625 -9.367188 -5.191406 -9.234375 -6.109375 C -9.097656 -6.773438 -8.90625 -7.335938 -8.65625 -7.796875 C -8.40625 -8.265625 -8.097656 -8.679688 -7.734375 -9.046875 Z M -6.640625 -8.21875 "/></g></g></g><g fill="#000000" fill-opacity="1"><g transform="translate(118.49225, 164.062733)"><g><path d="M -8.84375 -5.90625 L 0.890625 -2.890625 L 0.421875 -1.34375 L -9.3125 -4.359375 Z M -8.84375 -5.90625 "/></g></g></g><g fill="#000000" fill-opacity="1"><g transform="translate(120.104263, 158.721162)"><g><path d="M -4.828125 -9.390625 C -5.597656 -8.765625 -6.113281 -8.132812 -6.375 -7.5 C -6.570312 -7.039062 -6.625 -6.628906 -6.53125 -6.265625 C -6.445312 -5.910156 -6.222656 -5.65625 -5.859375 -5.5 C -5.503906 -5.351562 -5.132812 -5.398438 -4.75 -5.640625 C -4.375 -5.878906 -3.941406 -6.253906 -3.453125 -6.765625 C -3.085938 -7.160156 -2.726562 -7.476562 -2.375 -7.71875 C -2.03125 -7.957031 -1.628906 -8.109375 -1.171875 -8.171875 C -0.722656 -8.234375 -0.222656 -8.144531 0.328125 -7.90625 C 0.828125 -7.695312 1.222656 -7.378906 1.515625 -6.953125 C 1.816406 -6.535156 1.984375 -6.035156 2.015625 -5.453125 C 2.054688 -4.878906 1.9375 -4.269531 1.65625 -3.625 C 1.414062 -3.0625 1.085938 -2.539062 0.671875 -2.0625 C 0.265625 -1.59375 -0.175781 -1.210938 -0.65625 -0.921875 L -1.546875 -2.078125 C -1.171875 -2.296875 -0.804688 -2.585938 -0.453125 -2.953125 C -0.109375 -3.316406 0.132812 -3.679688 0.28125 -4.046875 C 0.476562 -4.503906 0.539062 -4.953125 0.46875 -5.390625 C 0.394531 -5.835938 0.132812 -6.160156 -0.3125 -6.359375 C -0.675781 -6.515625 -1.039062 -6.492188 -1.40625 -6.296875 C -1.769531 -6.109375 -2.160156 -5.804688 -2.578125 -5.390625 C -2.992188 -4.921875 -3.375 -4.550781 -3.71875 -4.28125 C -4.070312 -4.019531 -4.472656 -3.835938 -4.921875 -3.734375 C -5.378906 -3.628906 -5.875 -3.6875 -6.40625 -3.90625 C -7.175781 -4.238281 -7.679688 -4.765625 -7.921875 -5.484375 C -8.160156 -6.203125 -8.113281 -6.992188 -7.78125 -7.859375 C -7.519531 -8.472656 -7.21875 -8.984375 -6.875 -9.390625 C -6.539062 -9.804688 -6.15625 -10.15625 -5.71875 -10.4375 Z M -4.828125 -9.390625 "/></g></g></g><g fill="#000000" fill-opacity="1"><g transform="translate(123.782828, 150.275662)"><g><path d="M -5 -11.609375 L -3.65625 -10.8125 L -4.984375 -8.546875 L 2.453125 -4.1875 L 1.640625 -2.796875 L -5.796875 -7.15625 L -7.09375 -4.9375 L -8.4375 -5.734375 Z M -5 -11.609375 "/></g></g></g><g fill="#000000" fill-opacity="1"><g transform="translate(128.474847, 142.345863)"><g><path d="M -2.984375 -12.71875 L -1.75 -11.75 L -4.90625 -7.71875 L -2.765625 -6.03125 L 0.0625 -9.625 L 1.28125 -8.671875 L -1.546875 -5.078125 L 0.640625 -3.359375 L 3.921875 -7.546875 L 5.15625 -6.578125 L 0.875 -1.109375 L -7.140625 -7.40625 Z M -2.984375 -12.71875 "/></g></g></g><g fill="#000000" fill-opacity="1"><g transform="translate(134.704621, 134.281535)"><g><path d="M 1.546875 -15.671875 L 8.65625 -7.859375 L 7.453125 -6.765625 L 3.484375 -11.125 L 4.25 -4.984375 L 4.21875 -4.953125 L -1.59375 -6.1875 L 2.203125 -2 L 1.046875 -0.953125 L -6.0625 -8.765625 L 2.546875 -6.859375 L 1.515625 -15.65625 Z M 1.546875 -15.671875 "/></g></g></g><g fill="#000000" fill-opacity="1"><g transform="translate(145.239132, 125.009684)"><g><path d="M 4.328125 -5.578125 L 1.1875 -3.578125 L 1.65625 -1.046875 L 0.296875 -0.1875 L -1.59375 -11.546875 L -1.515625 -11.59375 L 7.984375 -5.0625 L 6.390625 -4.0625 Z M 3.109375 -6.46875 L 0.296875 -8.5 L 0.921875 -5.078125 Z M 3.109375 -6.46875 "/></g></g></g><g fill="#000000" fill-opacity="1"><g transform="translate(154.536137, 119.356887)"><g/></g></g><g fill="#000000" fill-opacity="1"><g transform="translate(159.503617, 116.811118)"><g><path d="M -2 -10.078125 L 0.734375 -11.03125 C 1.941406 -11.445312 3.023438 -11.554688 3.984375 -11.359375 C 4.941406 -11.160156 5.726562 -10.742188 6.34375 -10.109375 C 6.96875 -9.484375 7.425781 -8.75 7.71875 -7.90625 C 8.039062 -6.96875 8.101562 -6.066406 7.90625 -5.203125 C 7.71875 -4.347656 7.320312 -3.597656 6.71875 -2.953125 C 6.113281 -2.316406 5.378906 -1.851562 4.515625 -1.5625 L 1.328125 -0.453125 Z M 3.734375 -2.953125 C 4.421875 -3.191406 4.984375 -3.523438 5.421875 -3.953125 C 5.859375 -4.390625 6.132812 -4.910156 6.25 -5.515625 C 6.375 -6.117188 6.316406 -6.765625 6.078125 -7.453125 C 5.816406 -8.210938 5.441406 -8.789062 4.953125 -9.1875 C 4.460938 -9.582031 3.925781 -9.816406 3.34375 -9.890625 C 2.757812 -9.960938 2.203125 -9.90625 1.671875 -9.71875 L 0.046875 -9.15625 L 2.34375 -2.46875 Z M 3.734375 -2.953125 "/></g></g></g><g fill="#000000" fill-opacity="1"><g transform="translate(170.56359, 113.135383)"><g><path d="M 6.203125 -11.484375 L 6.484375 -9.953125 L 1.4375 -9.03125 L 1.921875 -6.359375 L 6.421875 -7.171875 L 6.703125 -5.625 L 2.203125 -4.8125 L 2.703125 -2.078125 L 7.9375 -3.03125 L 8.21875 -1.5 L 1.390625 -0.25 L -0.4375 -10.265625 Z M 6.203125 -11.484375 "/></g></g></g><g fill="#000000" fill-opacity="1"><g transform="translate(180.747168, 111.470556)"><g/></g></g><g fill="#000000" fill-opacity="1"><g transform="translate(186.418604, 111.118729)"><g><path d="M 3.109375 -10.15625 L 3.03125 0.03125 L 1.40625 0.015625 L 1.484375 -10.171875 Z M 3.109375 -10.15625 "/></g></g></g><g fill="#000000" fill-opacity="1"><g transform="translate(191.942145, 110.997609)"><g><path d="M 11.6875 -8.6875 L 10.265625 1.765625 L 10.21875 1.765625 L 3.890625 -6.296875 L 3.015625 0.40625 L 1.390625 0.1875 L 2.8125 -10.265625 L 2.890625 -10.25 L 9.1875 -2.109375 L 10.078125 -8.90625 Z M 11.6875 -8.6875 "/></g></g></g><g fill="#000000" fill-opacity="1"><g transform="translate(204.602956, 112.941245)"><g><path d="M 8.765625 -5.875 C 8.066406 -6.5625 7.382812 -7.003906 6.71875 -7.203125 C 6.238281 -7.347656 5.828125 -7.351562 5.484375 -7.21875 C 5.140625 -7.09375 4.910156 -6.835938 4.796875 -6.453125 C 4.679688 -6.085938 4.765625 -5.726562 5.046875 -5.375 C 5.335938 -5.03125 5.765625 -4.644531 6.328125 -4.21875 C 6.753906 -3.894531 7.101562 -3.570312 7.375 -3.25 C 7.65625 -2.925781 7.851562 -2.546875 7.96875 -2.109375 C 8.09375 -1.671875 8.070312 -1.164062 7.90625 -0.59375 C 7.75 -0.0703125 7.476562 0.359375 7.09375 0.703125 C 6.707031 1.054688 6.226562 1.285156 5.65625 1.390625 C 5.09375 1.492188 4.472656 1.445312 3.796875 1.25 C 3.210938 1.070312 2.660156 0.800781 2.140625 0.4375 C 1.628906 0.0820312 1.195312 -0.3125 0.84375 -0.75 L 1.90625 -1.765625 C 2.144531 -1.421875 2.46875 -1.097656 2.875 -0.796875 C 3.28125 -0.503906 3.675781 -0.300781 4.0625 -0.1875 C 4.539062 -0.0507812 4.992188 -0.0390625 5.421875 -0.15625 C 5.847656 -0.28125 6.128906 -0.578125 6.265625 -1.046875 C 6.378906 -1.421875 6.320312 -1.773438 6.09375 -2.109375 C 5.863281 -2.453125 5.515625 -2.8125 5.046875 -3.1875 C 4.546875 -3.539062 4.144531 -3.875 3.84375 -4.1875 C 3.539062 -4.507812 3.304688 -4.890625 3.140625 -5.328125 C 2.984375 -5.765625 2.988281 -6.253906 3.15625 -6.796875 C 3.382812 -7.597656 3.84375 -8.160156 4.53125 -8.484375 C 5.21875 -8.816406 6.007812 -8.867188 6.90625 -8.640625 C 7.550781 -8.453125 8.09375 -8.207031 8.53125 -7.90625 C 8.976562 -7.613281 9.375 -7.269531 9.71875 -6.875 Z M 8.765625 -5.875 "/></g></g></g><g fill="#000000" fill-opacity="1"><g transform="translate(213.411542, 115.564786)"><g><path d="M 8.484375 2.984375 C 8.117188 3.054688 7.65625 3.066406 7.09375 3.015625 C 6.539062 2.972656 5.976562 2.820312 5.40625 2.5625 C 4.445312 2.125 3.703125 1.53125 3.171875 0.78125 C 2.648438 0.0390625 2.351562 -0.765625 2.28125 -1.640625 C 2.21875 -2.523438 2.382812 -3.394531 2.78125 -4.25 C 3.195312 -5.175781 3.765625 -5.914062 4.484375 -6.46875 C 5.203125 -7.03125 6 -7.359375 6.875 -7.453125 C 7.75 -7.546875 8.628906 -7.390625 9.515625 -6.984375 C 10.054688 -6.742188 10.523438 -6.445312 10.921875 -6.09375 C 11.328125 -5.738281 11.660156 -5.367188 11.921875 -4.984375 L 10.6875 -3.875 C 10.226562 -4.664062 9.644531 -5.222656 8.9375 -5.546875 C 8.382812 -5.785156 7.804688 -5.863281 7.203125 -5.78125 C 6.597656 -5.707031 6.039062 -5.484375 5.53125 -5.109375 C 5.019531 -4.734375 4.628906 -4.242188 4.359375 -3.640625 C 4.066406 -3.003906 3.929688 -2.367188 3.953125 -1.734375 C 3.984375 -1.109375 4.175781 -0.546875 4.53125 -0.046875 C 4.882812 0.453125 5.375 0.84375 6 1.125 C 6.445312 1.320312 6.882812 1.4375 7.3125 1.46875 C 7.738281 1.5 8.125 1.46875 8.46875 1.375 Z M 8.484375 2.984375 "/></g></g></g><g fill="#000000" fill-opacity="1"><g transform="translate(223.162328, 120.08338)"><g><path d="M 5.859375 3.765625 L 5.84375 -0.453125 L 5.71875 -0.546875 L 4.46875 -1.34375 L 2.546875 1.640625 L 1.1875 0.765625 L 6.703125 -7.796875 L 9.109375 -6.25 C 10.066406 -5.632812 10.675781 -4.898438 10.9375 -4.046875 C 11.195312 -3.191406 11.050781 -2.332031 10.5 -1.46875 C 10.15625 -0.945312 9.726562 -0.53125 9.21875 -0.21875 C 8.707031 0.09375 8.132812 0.210938 7.5 0.140625 L 7.453125 4.796875 Z M 5.3125 -2.65625 L 6.546875 -1.859375 C 7.085938 -1.515625 7.578125 -1.410156 8.015625 -1.546875 C 8.460938 -1.691406 8.8125 -1.953125 9.0625 -2.328125 C 9.195312 -2.546875 9.289062 -2.796875 9.34375 -3.078125 C 9.394531 -3.367188 9.359375 -3.664062 9.234375 -3.96875 C 9.109375 -4.28125 8.863281 -4.550781 8.5 -4.78125 L 7.21875 -5.609375 Z M 5.3125 -2.65625 "/></g></g></g><g fill="#000000" fill-opacity="1"><g transform="translate(231.868065, 125.924306)"><g><path d="M 8.78125 -6 L 2.34375 1.90625 L 1.09375 0.890625 L 7.53125 -7.015625 Z M 8.78125 -6 "/></g></g></g><g fill="#000000" fill-opacity="1"><g transform="translate(236.219455, 129.403732)"><g><path d="M 10.25 -4.140625 C 11.0625 -3.316406 11.492188 -2.46875 11.546875 -1.59375 C 11.597656 -0.71875 11.257812 0.078125 10.53125 0.796875 C 10.113281 1.210938 9.640625 1.515625 9.109375 1.703125 C 8.585938 1.890625 8.03125 1.910156 7.4375 1.765625 C 6.84375 1.628906 6.265625 1.273438 5.703125 0.703125 L 4.65625 -0.34375 L 2.140625 2.15625 L 0.984375 1 L 8.21875 -6.171875 Z M 6.8125 -0.390625 C 7.125 -0.0664062 7.441406 0.117188 7.765625 0.171875 C 8.097656 0.222656 8.40625 0.191406 8.6875 0.078125 C 8.96875 -0.0234375 9.195312 -0.164062 9.375 -0.34375 C 9.675781 -0.644531 9.859375 -1.019531 9.921875 -1.46875 C 9.984375 -1.925781 9.785156 -2.390625 9.328125 -2.859375 L 8.265625 -3.921875 L 5.765625 -1.4375 Z M 6.8125 -0.390625 "/></g></g></g><g fill="#000000" fill-opacity="1"><g transform="translate(242.953104, 136.23144)"><g><path d="M 6 6.703125 C 5.644531 6.597656 5.234375 6.390625 4.765625 6.078125 C 4.296875 5.773438 3.867188 5.367188 3.484375 4.859375 C 2.859375 4.015625 2.492188 3.140625 2.390625 2.234375 C 2.296875 1.328125 2.429688 0.472656 2.796875 -0.328125 C 3.160156 -1.140625 3.71875 -1.828125 4.46875 -2.390625 C 5.28125 -2.992188 6.132812 -3.363281 7.03125 -3.5 C 7.9375 -3.644531 8.796875 -3.546875 9.609375 -3.203125 C 10.429688 -2.859375 11.128906 -2.296875 11.703125 -1.515625 C 12.054688 -1.046875 12.320312 -0.554688 12.5 -0.046875 C 12.6875 0.453125 12.804688 0.929688 12.859375 1.390625 L 11.234375 1.78125 C 11.210938 0.863281 10.96875 0.09375 10.5 -0.53125 C 10.132812 -1.019531 9.664062 -1.375 9.09375 -1.59375 C 8.53125 -1.8125 7.929688 -1.878906 7.296875 -1.796875 C 6.671875 -1.710938 6.09375 -1.472656 5.5625 -1.078125 C 5 -0.648438 4.582031 -0.160156 4.3125 0.390625 C 4.039062 0.953125 3.9375 1.535156 4 2.140625 C 4.070312 2.753906 4.3125 3.335938 4.71875 3.890625 C 5.007812 4.273438 5.332031 4.582031 5.6875 4.8125 C 6.050781 5.050781 6.40625 5.210938 6.75 5.296875 Z M 6 6.703125 "/></g></g></g><g fill="#000000" fill-opacity="1"><g transform="translate(249.257043, 145.032883)"><g><path d="M 10.328125 -2.5 L 1.53125 2.625 L 0.703125 1.21875 L 9.5 -3.90625 Z M 10.328125 -2.5 "/></g></g></g><g fill="#000000" fill-opacity="1"><g transform="translate(252.183854, 149.717735)"><g><path d="M 4.96875 -1.265625 C 5.832031 -1.628906 6.722656 -1.75 7.640625 -1.625 C 8.554688 -1.507812 9.382812 -1.175781 10.125 -0.625 C 10.875 -0.0703125 11.4375 0.640625 11.8125 1.515625 C 12.164062 2.367188 12.28125 3.253906 12.15625 4.171875 C 12.03125 5.085938 11.691406 5.921875 11.140625 6.671875 C 10.585938 7.429688 9.882812 7.992188 9.03125 8.359375 C 8.175781 8.722656 7.285156 8.835938 6.359375 8.703125 C 5.441406 8.578125 4.613281 8.234375 3.875 7.671875 C 3.132812 7.117188 2.585938 6.414062 2.234375 5.5625 C 1.859375 4.6875 1.726562 3.789062 1.84375 2.875 C 1.96875 1.957031 2.300781 1.128906 2.84375 0.390625 C 3.394531 -0.347656 4.101562 -0.898438 4.96875 -1.265625 Z M 5.625 0.296875 C 5.019531 0.546875 4.523438 0.921875 4.140625 1.421875 C 3.765625 1.929688 3.53125 2.503906 3.4375 3.140625 C 3.351562 3.773438 3.4375 4.390625 3.6875 4.984375 C 3.9375 5.578125 4.3125 6.054688 4.8125 6.421875 C 5.3125 6.785156 5.878906 7 6.515625 7.0625 C 7.148438 7.132812 7.769531 7.046875 8.375 6.796875 C 8.988281 6.535156 9.488281 6.148438 9.875 5.640625 C 10.269531 5.128906 10.515625 4.5625 10.609375 3.9375 C 10.703125 3.3125 10.625 2.707031 10.375 2.125 C 10.113281 1.519531 9.726562 1.03125 9.21875 0.65625 C 8.707031 0.289062 8.132812 0.0703125 7.5 0 C 6.863281 -0.0625 6.238281 0.0351562 5.625 0.296875 Z M 12.421875 1.78125 L 12.03125 0.859375 L 14.1875 1.171875 L 14.875 2.78125 Z M 12.421875 1.78125 "/></g></g></g><g fill="#000000" fill-opacity="1"><g transform="translate(257.117885, 161.646726)"><g><path d="M 12.21875 7.921875 L 1.9375 10.234375 L 1.9375 10.1875 L 7.25 1.453125 L 0.671875 2.96875 L 0.3125 1.375 L 10.59375 -0.9375 L 10.609375 -0.859375 L 5.1875 7.859375 L 11.875 6.328125 Z M 12.21875 7.921875 "/></g></g></g><g fill="#000000" fill-opacity="1"><g transform="translate(106.535914, 203.410208)"><g><path d="M 11.1875 0.21875 L 2.109375 2.5625 L 3.484375 7.875 L 2.125 8.21875 L 0.390625 1.5 L 10.828125 -1.1875 Z M 11.1875 0.21875 "/></g></g></g><g fill="#000000" fill-opacity="1"><g transform="translate(109.572858, 214.191609)"><g><path d="M 0.921875 0.203125 C 1.128906 0.128906 1.332031 0.140625 1.53125 0.234375 C 1.726562 0.328125 1.863281 0.472656 1.9375 0.671875 C 2 0.847656 1.984375 1.039062 1.890625 1.25 C 1.804688 1.46875 1.660156 1.613281 1.453125 1.6875 C 1.234375 1.757812 1.023438 1.742188 0.828125 1.640625 C 0.640625 1.546875 0.507812 1.40625 0.4375 1.21875 C 0.363281 1.019531 0.367188 0.816406 0.453125 0.609375 C 0.546875 0.410156 0.703125 0.273438 0.921875 0.203125 Z M 0.921875 0.203125 "/></g></g></g><g fill="#000000" fill-opacity="1"><g transform="translate(111.027512, 218.401874)"><g><path d="M 7.765625 3.34375 C 7.816406 4.007812 7.71875 4.597656 7.46875 5.109375 C 7.21875 5.617188 6.828125 6 6.296875 6.25 C 5.679688 6.539062 5.097656 6.628906 4.546875 6.515625 C 3.992188 6.410156 3.503906 6.160156 3.078125 5.765625 C 2.648438 5.367188 2.300781 4.878906 2.03125 4.296875 L 0.65625 1.40625 L 10.40625 -3.203125 L 11.609375 -0.6875 C 12.078125 0.3125 12.234375 1.179688 12.078125 1.921875 C 11.921875 2.671875 11.4375 3.238281 10.625 3.625 C 10.113281 3.863281 9.613281 3.957031 9.125 3.90625 C 8.644531 3.851562 8.191406 3.664062 7.765625 3.34375 Z M 6.765625 0.125 L 7.46875 1.609375 C 7.695312 2.109375 8.015625 2.414062 8.421875 2.53125 C 8.828125 2.644531 9.253906 2.597656 9.703125 2.390625 C 10.203125 2.148438 10.5 1.820312 10.59375 1.40625 C 10.695312 0.988281 10.617188 0.503906 10.359375 -0.046875 L 9.765625 -1.296875 Z M 3.21875 3.671875 C 3.488281 4.234375 3.835938 4.640625 4.265625 4.890625 C 4.691406 5.140625 5.15625 5.148438 5.65625 4.921875 C 6.15625 4.679688 6.429688 4.300781 6.484375 3.78125 C 6.546875 3.257812 6.441406 2.71875 6.171875 2.15625 L 5.5 0.71875 L 2.5 2.140625 Z M 3.21875 3.671875 "/></g></g></g><g fill="#000000" fill-opacity="1"><g transform="translate(116.009315, 228.381525)"><g><path d="M 0.9375 0.03125 C 1.125 -0.0820312 1.328125 -0.109375 1.546875 -0.046875 C 1.765625 0.00390625 1.925781 0.117188 2.03125 0.296875 C 2.132812 0.460938 2.160156 0.65625 2.109375 0.875 C 2.054688 1.09375 1.9375 1.257812 1.75 1.375 C 1.550781 1.488281 1.34375 1.515625 1.125 1.453125 C 0.914062 1.398438 0.757812 1.285156 0.65625 1.109375 C 0.550781 0.929688 0.519531 0.734375 0.5625 0.515625 C 0.613281 0.304688 0.738281 0.144531 0.9375 0.03125 Z M 0.9375 0.03125 "/></g></g></g><g fill="#000000" fill-opacity="1"><g transform="translate(118.256065, 232.126126)"><g><path d="M 7.09375 -2.28125 L 6.421875 -3.265625 L 9.484375 -5.375 L 10.1875 -4.34375 Z M 8.234375 -0.625 L 7.5625 -1.609375 L 10.625 -3.71875 L 11.328125 -2.6875 Z M 8.234375 -0.625 "/></g></g></g><g fill="#000000" fill-opacity="1"><g transform="translate(122.219995, 237.999369)"><g><path d="M 7.328125 6.875 C 6.910156 6.800781 6.382812 6.570312 5.75 6.1875 C 5.125 5.8125 4.617188 5.398438 4.234375 4.953125 C 3.484375 4.109375 3 3.210938 2.78125 2.265625 C 2.5625 1.316406 2.597656 0.40625 2.890625 -0.46875 C 3.191406 -1.351562 3.710938 -2.125 4.453125 -2.78125 C 5.335938 -3.5625 6.265625 -4.050781 7.234375 -4.25 C 8.210938 -4.445312 9.148438 -4.378906 10.046875 -4.046875 C 10.953125 -3.710938 11.738281 -3.171875 12.40625 -2.421875 C 12.800781 -1.972656 13.125 -1.5 13.375 -1 C 13.625 -0.507812 13.800781 -0.0234375 13.90625 0.453125 L 12.609375 0.96875 C 12.523438 0.613281 12.375 0.210938 12.15625 -0.234375 C 11.9375 -0.679688 11.703125 -1.046875 11.453125 -1.328125 C 10.898438 -1.953125 10.28125 -2.394531 9.59375 -2.65625 C 8.914062 -2.914062 8.226562 -2.96875 7.53125 -2.8125 C 6.832031 -2.65625 6.171875 -2.300781 5.546875 -1.75 C 4.960938 -1.226562 4.554688 -0.640625 4.328125 0.015625 C 4.109375 0.671875 4.085938 1.347656 4.265625 2.046875 C 4.441406 2.753906 4.800781 3.414062 5.34375 4.03125 C 5.59375 4.300781 5.863281 4.546875 6.15625 4.765625 C 6.445312 4.984375 6.726562 5.132812 7 5.21875 L 8.578125 3.8125 L 7.140625 2.203125 L 8.1875 1.28125 L 10.59375 3.984375 Z M 7.328125 6.875 "/></g></g></g><g fill="#000000" fill-opacity="1"><g transform="translate(131.224838, 247.768787)"><g><path d="M 2.546875 -1.953125 C 2.941406 -2.410156 3.410156 -2.738281 3.953125 -2.9375 C 4.492188 -3.132812 5.054688 -3.171875 5.640625 -3.046875 C 6.234375 -2.929688 6.78125 -2.660156 7.28125 -2.234375 C 7.78125 -1.816406 8.128906 -1.332031 8.328125 -0.78125 C 8.535156 -0.226562 8.582031 0.328125 8.46875 0.890625 C 8.363281 1.453125 8.113281 1.96875 7.71875 2.4375 C 7.320312 2.90625 6.851562 3.238281 6.3125 3.4375 C 5.78125 3.632812 5.222656 3.675781 4.640625 3.5625 C 4.054688 3.457031 3.507812 3.1875 3 2.75 C 2.507812 2.332031 2.15625 1.847656 1.9375 1.296875 C 1.71875 0.753906 1.65625 0.203125 1.75 -0.359375 C 1.851562 -0.921875 2.117188 -1.453125 2.546875 -1.953125 Z M 3.59375 -1.03125 C 3.34375 -0.738281 3.179688 -0.410156 3.109375 -0.046875 C 3.035156 0.304688 3.050781 0.648438 3.15625 0.984375 C 3.257812 1.328125 3.445312 1.617188 3.71875 1.859375 C 4.164062 2.234375 4.664062 2.382812 5.21875 2.3125 C 5.769531 2.25 6.238281 1.988281 6.625 1.53125 C 7.03125 1.0625 7.222656 0.550781 7.203125 0 C 7.179688 -0.5625 6.945312 -1.03125 6.5 -1.40625 C 6.21875 -1.65625 5.898438 -1.800781 5.546875 -1.84375 C 5.203125 -1.882812 4.851562 -1.832031 4.5 -1.6875 C 4.15625 -1.550781 3.851562 -1.332031 3.59375 -1.03125 Z M 3.59375 -1.03125 "/></g></g></g><g fill="#000000" fill-opacity="1"><g transform="translate(139.037057, 254.244311)"><g><path d="M 7.71875 -2.59375 C 8.207031 -2.28125 8.515625 -1.875 8.640625 -1.375 C 8.765625 -0.882812 8.679688 -0.40625 8.390625 0.0625 L 5.890625 3.875 L 4.734375 3.109375 L 6.96875 -0.296875 C 7.144531 -0.609375 7.207031 -0.898438 7.15625 -1.171875 C 7.101562 -1.441406 6.921875 -1.679688 6.609375 -1.890625 C 6.148438 -2.191406 5.648438 -2.257812 5.109375 -2.09375 C 4.578125 -1.925781 4.128906 -1.5625 3.765625 -1 L 2.171875 1.421875 L 1 0.65625 L 4.390625 -4.5 L 5.4375 -3.8125 L 4.859375 -2.78125 C 5.296875 -3.03125 5.765625 -3.140625 6.265625 -3.109375 C 6.765625 -3.078125 7.25 -2.90625 7.71875 -2.59375 Z M 7.71875 -2.59375 "/></g></g></g><g fill="#000000" fill-opacity="1"><g transform="translate(147.679636, 259.73619)"><g><path d="M 2.921875 0.1875 L 5.984375 1.734375 L 5.46875 2.75 L 0.375 0.1875 L 5.765625 -2.734375 L 3.859375 -3.703125 C 3.566406 -3.847656 3.367188 -4.054688 3.265625 -4.328125 C 3.171875 -4.597656 3.203125 -4.894531 3.359375 -5.21875 L 3.625 -5.75 L 4.578125 -5.265625 L 4.5 -5.09375 C 4.425781 -4.945312 4.410156 -4.832031 4.453125 -4.75 C 4.492188 -4.675781 4.597656 -4.597656 4.765625 -4.515625 L 8.296875 -2.734375 Z M 2.921875 0.1875 "/></g></g></g><g fill="#000000" fill-opacity="1"><g transform="translate(155.672259, 263.679433)"><g><path d="M 9.1875 -3.234375 L 7.09375 2.5625 L 5.78125 2.09375 L 6.125 1.140625 C 5.832031 1.335938 5.445312 1.476562 4.96875 1.5625 C 4.5 1.65625 4.015625 1.609375 3.515625 1.421875 C 2.960938 1.222656 2.503906 0.921875 2.140625 0.515625 C 1.773438 0.117188 1.546875 -0.347656 1.453125 -0.890625 C 1.367188 -1.441406 1.441406 -2.03125 1.671875 -2.65625 C 1.898438 -3.289062 2.234375 -3.800781 2.671875 -4.1875 C 3.109375 -4.570312 3.601562 -4.804688 4.15625 -4.890625 C 4.707031 -4.972656 5.253906 -4.914062 5.796875 -4.71875 C 6.296875 -4.539062 6.6875 -4.28125 6.96875 -3.9375 C 7.257812 -3.59375 7.453125 -3.207031 7.546875 -2.78125 L 7.984375 -3.671875 Z M 4.25 0.46875 C 4.726562 0.644531 5.179688 0.660156 5.609375 0.515625 C 6.046875 0.378906 6.394531 0.0976562 6.65625 -0.328125 L 7.078125 -1.484375 C 7.117188 -1.929688 7.007812 -2.347656 6.75 -2.734375 C 6.488281 -3.128906 6.125 -3.410156 5.65625 -3.578125 C 5.3125 -3.691406 4.960938 -3.71875 4.609375 -3.65625 C 4.253906 -3.59375 3.9375 -3.441406 3.65625 -3.203125 C 3.375 -2.960938 3.164062 -2.648438 3.03125 -2.265625 C 2.894531 -1.890625 2.859375 -1.515625 2.921875 -1.140625 C 2.984375 -0.773438 3.128906 -0.445312 3.359375 -0.15625 C 3.597656 0.132812 3.894531 0.34375 4.25 0.46875 Z M 4.25 0.46875 "/></g></g></g><g fill="#000000" fill-opacity="1"><g transform="translate(165.798716, 267.109698)"><g><path d="M 5.34375 -10.546875 L 2.515625 0.640625 L 1.171875 0.296875 L 4 -10.890625 Z M 5.34375 -10.546875 "/></g></g></g><g fill="#000000" fill-opacity="1"><g transform="translate(171.359687, 268.52914)"><g><path d="M 1.140625 -3 C 1.222656 -3.59375 1.445312 -4.117188 1.8125 -4.578125 C 2.1875 -5.035156 2.65625 -5.363281 3.21875 -5.5625 C 3.78125 -5.769531 4.382812 -5.820312 5.03125 -5.71875 C 5.675781 -5.625 6.226562 -5.394531 6.6875 -5.03125 C 7.15625 -4.664062 7.488281 -4.210938 7.6875 -3.671875 C 7.894531 -3.140625 7.953125 -2.570312 7.859375 -1.96875 C 7.765625 -1.351562 7.539062 -0.816406 7.1875 -0.359375 C 6.832031 0.0859375 6.375 0.410156 5.8125 0.609375 C 5.25 0.816406 4.640625 0.875 3.984375 0.78125 C 3.347656 0.675781 2.796875 0.445312 2.328125 0.09375 C 1.867188 -0.25 1.53125 -0.6875 1.3125 -1.21875 C 1.09375 -1.75 1.035156 -2.34375 1.140625 -3 Z M 2.515625 -2.78125 C 2.460938 -2.394531 2.492188 -2.023438 2.609375 -1.671875 C 2.734375 -1.328125 2.929688 -1.035156 3.203125 -0.796875 C 3.472656 -0.566406 3.789062 -0.425781 4.15625 -0.375 C 4.726562 -0.28125 5.226562 -0.40625 5.65625 -0.75 C 6.09375 -1.09375 6.351562 -1.566406 6.4375 -2.171875 C 6.53125 -2.773438 6.421875 -3.304688 6.109375 -3.765625 C 5.804688 -4.234375 5.367188 -4.515625 4.796875 -4.609375 C 4.421875 -4.660156 4.070312 -4.613281 3.75 -4.46875 C 3.4375 -4.320312 3.164062 -4.097656 2.9375 -3.796875 C 2.71875 -3.503906 2.578125 -3.164062 2.515625 -2.78125 Z M 2.515625 -2.78125 "/></g></g></g><g fill="#000000" fill-opacity="1"><g transform="translate(181.341135, 269.880743)"><g/></g></g><g fill="#000000" fill-opacity="1"><g transform="translate(188.013984, 270.233616)"><g><path d="M 3.859375 -11 C 5.023438 -11.0625 5.953125 -10.816406 6.640625 -10.265625 C 7.335938 -9.710938 7.71875 -8.910156 7.78125 -7.859375 C 7.8125 -7.253906 7.71875 -6.6875 7.5 -6.15625 C 7.28125 -5.625 6.90625 -5.175781 6.375 -4.8125 C 5.851562 -4.457031 5.1875 -4.257812 4.375 -4.21875 L 2.78125 -4.125 L 3 -0.15625 L 1.546875 -0.078125 L 0.96875 -10.84375 Z M 4.3125 -5.609375 C 4.820312 -5.628906 5.226562 -5.753906 5.53125 -5.984375 C 5.832031 -6.222656 6.046875 -6.503906 6.171875 -6.828125 C 6.296875 -7.148438 6.351562 -7.457031 6.34375 -7.75 C 6.3125 -8.269531 6.113281 -8.722656 5.75 -9.109375 C 5.394531 -9.492188 4.867188 -9.664062 4.171875 -9.625 L 2.5 -9.53125 L 2.71875 -5.515625 Z M 4.3125 -5.609375 "/></g></g></g><g fill="#000000" fill-opacity="1"><g transform="translate(198.797469, 269.432128)"><g><path d="M 1.625 -6.484375 L 2.5625 -0.390625 L 1.1875 -0.1875 L 0.25 -6.28125 Z M -0.1875 -8.46875 C -0.21875 -8.675781 -0.160156 -8.863281 -0.015625 -9.03125 C 0.117188 -9.207031 0.296875 -9.3125 0.515625 -9.34375 C 0.722656 -9.375 0.921875 -9.328125 1.109375 -9.203125 C 1.304688 -9.085938 1.421875 -8.925781 1.453125 -8.71875 C 1.484375 -8.5 1.425781 -8.300781 1.28125 -8.125 C 1.144531 -7.945312 0.972656 -7.84375 0.765625 -7.8125 C 0.546875 -7.78125 0.335938 -7.828125 0.140625 -7.953125 C -0.046875 -8.078125 -0.15625 -8.25 -0.1875 -8.46875 Z M -0.1875 -8.46875 "/></g></g></g><g fill="#000000" fill-opacity="1"><g transform="translate(204.438907, 268.542541)"><g><path d="M 5.90625 -2.046875 C 5.675781 -1.753906 5.390625 -1.5 5.046875 -1.28125 C 4.710938 -1.0625 4.351562 -0.90625 3.96875 -0.8125 C 3.320312 -0.65625 2.71875 -0.644531 2.15625 -0.78125 C 1.59375 -0.925781 1.117188 -1.203125 0.734375 -1.609375 C 0.347656 -2.015625 0.078125 -2.53125 -0.078125 -3.15625 C -0.234375 -3.78125 -0.222656 -4.367188 -0.046875 -4.921875 C 0.117188 -5.472656 0.410156 -5.9375 0.828125 -6.3125 C 1.253906 -6.6875 1.75 -6.941406 2.3125 -7.078125 C 3.226562 -7.296875 4.039062 -7.234375 4.75 -6.890625 L 4.296875 -5.84375 C 4.066406 -5.9375 3.8125 -6 3.53125 -6.03125 C 3.257812 -6.070312 2.984375 -6.0625 2.703125 -6 C 2.335938 -5.90625 2.023438 -5.734375 1.765625 -5.484375 C 1.515625 -5.234375 1.34375 -4.929688 1.25 -4.578125 C 1.164062 -4.234375 1.171875 -3.867188 1.265625 -3.484375 C 1.359375 -3.109375 1.53125 -2.789062 1.78125 -2.53125 C 2.03125 -2.269531 2.332031 -2.082031 2.6875 -1.96875 C 3.039062 -1.863281 3.414062 -1.863281 3.8125 -1.96875 C 4.3125 -2.082031 4.707031 -2.332031 5 -2.71875 Z M 5.90625 -2.046875 "/></g></g></g><g fill="#000000" fill-opacity="1"><g transform="translate(212.960596, 266.37672)"><g><path d="M -0.46875 -3.1875 C -0.675781 -3.75 -0.726562 -4.316406 -0.625 -4.890625 C -0.519531 -5.460938 -0.273438 -5.972656 0.109375 -6.421875 C 0.492188 -6.867188 0.992188 -7.207031 1.609375 -7.4375 C 2.222656 -7.664062 2.820312 -7.734375 3.40625 -7.640625 C 4 -7.554688 4.507812 -7.328125 4.9375 -6.953125 C 5.375 -6.585938 5.695312 -6.117188 5.90625 -5.546875 C 6.125 -4.960938 6.1875 -4.382812 6.09375 -3.8125 C 6.007812 -3.25 5.769531 -2.738281 5.375 -2.28125 C 4.988281 -1.832031 4.484375 -1.492188 3.859375 -1.265625 C 3.253906 -1.046875 2.660156 -0.972656 2.078125 -1.046875 C 1.503906 -1.117188 0.992188 -1.335938 0.546875 -1.703125 C 0.0976562 -2.066406 -0.238281 -2.5625 -0.46875 -3.1875 Z M 0.875 -3.65625 C 1 -3.289062 1.195312 -2.984375 1.46875 -2.734375 C 1.75 -2.492188 2.0625 -2.335938 2.40625 -2.265625 C 2.757812 -2.191406 3.109375 -2.21875 3.453125 -2.34375 C 3.992188 -2.539062 4.367188 -2.894531 4.578125 -3.40625 C 4.796875 -3.914062 4.800781 -4.457031 4.59375 -5.03125 C 4.375 -5.601562 4.015625 -6.015625 3.515625 -6.265625 C 3.023438 -6.523438 2.507812 -6.554688 1.96875 -6.359375 C 1.613281 -6.222656 1.332031 -6.015625 1.125 -5.734375 C 0.914062 -5.453125 0.785156 -5.125 0.734375 -4.75 C 0.679688 -4.382812 0.726562 -4.019531 0.875 -3.65625 Z M 1.71875 -8.46875 L 0.875 -8.15625 L 1.359375 -10.453125 L 2.796875 -10.984375 Z M 1.71875 -8.46875 "/></g></g></g><g fill="#000000" fill-opacity="1"><g transform="translate(222.435061, 262.744366)"><g><path d="M 1.53125 -8 C 2.050781 -8.269531 2.554688 -8.335938 3.046875 -8.203125 C 3.535156 -8.078125 3.910156 -7.769531 4.171875 -7.28125 L 6.265625 -3.234375 L 5.03125 -2.59375 L 3.15625 -6.21875 C 2.976562 -6.519531 2.753906 -6.710938 2.484375 -6.796875 C 2.222656 -6.890625 1.925781 -6.859375 1.59375 -6.703125 C 1.113281 -6.453125 0.8125 -6.046875 0.6875 -5.484375 C 0.5625 -4.929688 0.65625 -4.351562 0.96875 -3.75 L 2.296875 -1.1875 L 1.0625 -0.546875 L -1.765625 -6.03125 L -0.65625 -6.609375 L -0.03125 -5.59375 C -0.0390625 -6.101562 0.0859375 -6.566406 0.359375 -6.984375 C 0.640625 -7.398438 1.03125 -7.738281 1.53125 -8 Z M 1.53125 -8 "/></g></g></g><g fill="#000000" fill-opacity="1"><g transform="translate(231.401618, 257.894118)"><g/></g></g><g fill="#000000" fill-opacity="1"><g transform="translate(236.99666, 254.245596)"><g><path d="M -0.65625 -13.375 L 0.21875 -12.296875 L -3.609375 -9.171875 L -1.4375 -6.515625 L 1.921875 -9.25 L 2.796875 -8.171875 L -0.5625 -5.4375 L 2.328125 -1.890625 L 1.203125 -0.984375 L -5.609375 -9.34375 Z M -0.65625 -13.375 "/></g></g></g><g fill="#000000" fill-opacity="1"><g transform="translate(245.271695, 247.298452)"><g><path d="M 2.078125 -3.671875 C 2.441406 -4.046875 2.660156 -4.535156 2.734375 -5.140625 L 3.921875 -4.890625 C 3.847656 -4.503906 3.722656 -4.128906 3.546875 -3.765625 C 3.378906 -3.398438 3.171875 -3.085938 2.921875 -2.828125 C 2.453125 -2.335938 1.929688 -2.003906 1.359375 -1.828125 C 0.796875 -1.648438 0.242188 -1.632812 -0.296875 -1.78125 C -0.835938 -1.925781 -1.335938 -2.210938 -1.796875 -2.640625 C -2.234375 -3.066406 -2.53125 -3.5625 -2.6875 -4.125 C -2.84375 -4.6875 -2.84375 -5.257812 -2.6875 -5.84375 C -2.53125 -6.425781 -2.238281 -6.941406 -1.8125 -7.390625 C -1.25 -7.984375 -0.613281 -8.3125 0.09375 -8.375 C 0.8125 -8.445312 1.546875 -8.257812 2.296875 -7.8125 L 0.15625 -3.09375 C 0.5 -3.007812 0.835938 -3.015625 1.171875 -3.109375 C 1.503906 -3.210938 1.804688 -3.398438 2.078125 -3.671875 Z M -1.078125 -6.578125 C -1.472656 -6.160156 -1.648438 -5.679688 -1.609375 -5.140625 C -1.578125 -4.597656 -1.335938 -4.117188 -0.890625 -3.703125 C -0.785156 -3.597656 -0.703125 -3.515625 -0.640625 -3.453125 L 0.875 -6.984375 C 0.519531 -7.109375 0.175781 -7.144531 -0.15625 -7.09375 C -0.488281 -7.039062 -0.796875 -6.867188 -1.078125 -6.578125 Z M -1.078125 -6.578125 "/></g></g></g><g fill="#000000" fill-opacity="1"><g transform="translate(251.9645, 240.167192)"><g><path d="M -2.078125 -7.96875 C -1.742188 -8.414062 -1.332031 -8.742188 -0.84375 -8.953125 C -0.363281 -9.171875 0.148438 -9.242188 0.703125 -9.171875 C 1.253906 -9.097656 1.789062 -8.867188 2.3125 -8.484375 C 2.851562 -8.078125 3.238281 -7.601562 3.46875 -7.0625 C 3.707031 -6.53125 3.789062 -5.984375 3.71875 -5.421875 C 3.644531 -4.867188 3.4375 -4.363281 3.09375 -3.90625 C 2.789062 -3.5 2.4375 -3.1875 2.03125 -2.96875 C 1.625 -2.757812 1.207031 -2.648438 0.78125 -2.640625 L 1.546875 -2.078125 L 0.71875 -0.96875 L -8.546875 -7.859375 L -7.71875 -8.96875 L -2.75 -5.265625 C -2.851562 -5.671875 -2.847656 -6.113281 -2.734375 -6.59375 C -2.617188 -7.070312 -2.398438 -7.53125 -2.078125 -7.96875 Z M 1.953125 -4.390625 C 2.304688 -4.867188 2.4375 -5.382812 2.34375 -5.9375 C 2.257812 -6.5 1.96875 -6.96875 1.46875 -7.34375 C 1.15625 -7.570312 0.8125 -7.707031 0.4375 -7.75 C 0.0703125 -7.800781 -0.28125 -7.753906 -0.625 -7.609375 C -0.96875 -7.472656 -1.253906 -7.25 -1.484375 -6.9375 C -1.785156 -6.53125 -1.9375 -6.085938 -1.9375 -5.609375 C -1.945312 -5.140625 -1.8125 -4.722656 -1.53125 -4.359375 L -0.515625 -3.609375 C -0.0859375 -3.441406 0.347656 -3.425781 0.796875 -3.5625 C 1.253906 -3.695312 1.640625 -3.972656 1.953125 -4.390625 Z M 1.953125 -4.390625 "/></g></g></g><g fill="#000000" fill-opacity="1"><g transform="translate(258.253261, 231.363019)"><g><path d="M -2.78125 -4.578125 C -3 -4.878906 -3.144531 -5.222656 -3.21875 -5.609375 C -3.300781 -5.992188 -3.316406 -6.359375 -3.265625 -6.703125 C -3.210938 -7.054688 -3.128906 -7.34375 -3.015625 -7.5625 L -1.84375 -6.828125 C -2.09375 -6.453125 -2.222656 -6.054688 -2.234375 -5.640625 C -2.242188 -5.222656 -2.144531 -4.835938 -1.9375 -4.484375 C -1.726562 -4.128906 -1.457031 -3.851562 -1.125 -3.65625 L 1.3125 -2.234375 L 0.609375 -1.046875 L -4.71875 -4.15625 L -4.09375 -5.21875 Z M -2.78125 -4.578125 "/></g></g></g><g fill="#000000" fill-opacity="1"><g transform="translate(262.024477, 224.799398)"><g><path d="M 0.734375 -4.171875 C 0.941406 -4.640625 0.988281 -5.171875 0.875 -5.765625 L 2.0625 -5.921875 C 2.125 -5.523438 2.132812 -5.128906 2.09375 -4.734375 C 2.050781 -4.335938 1.957031 -3.972656 1.8125 -3.640625 C 1.53125 -3.023438 1.148438 -2.539062 0.671875 -2.1875 C 0.203125 -1.832031 -0.3125 -1.628906 -0.875 -1.578125 C -1.4375 -1.535156 -2 -1.640625 -2.5625 -1.890625 C -3.125 -2.140625 -3.570312 -2.503906 -3.90625 -2.984375 C -4.238281 -3.472656 -4.429688 -4.015625 -4.484375 -4.609375 C -4.535156 -5.210938 -4.429688 -5.800781 -4.171875 -6.375 C -3.835938 -7.113281 -3.347656 -7.632812 -2.703125 -7.9375 C -2.054688 -8.238281 -1.300781 -8.300781 -0.4375 -8.125 L -0.890625 -2.96875 C -0.523438 -3 -0.207031 -3.117188 0.0625 -3.328125 C 0.34375 -3.535156 0.566406 -3.816406 0.734375 -4.171875 Z M -3.21875 -5.828125 C -3.445312 -5.304688 -3.453125 -4.796875 -3.234375 -4.296875 C -3.023438 -3.804688 -2.640625 -3.429688 -2.078125 -3.171875 C -1.941406 -3.117188 -1.835938 -3.078125 -1.765625 -3.046875 L -1.484375 -6.875 C -1.859375 -6.875 -2.195312 -6.789062 -2.5 -6.625 C -2.8125 -6.46875 -3.050781 -6.203125 -3.21875 -5.828125 Z M -3.21875 -5.828125 "/></g></g></g><g fill="#000000" fill-opacity="1"><g transform="translate(265.880743, 215.873846)"><g><path d="M 1.0625 -2.765625 C 0.914062 -2.328125 0.703125 -1.9375 0.421875 -1.59375 C 0.140625 -1.257812 -0.1875 -1.015625 -0.5625 -0.859375 L -1.140625 -1.671875 C -0.835938 -1.835938 -0.578125 -2.03125 -0.359375 -2.25 C -0.148438 -2.46875 -0.0078125 -2.703125 0.0625 -2.953125 C 0.164062 -3.265625 0.1875 -3.539062 0.125 -3.78125 C 0.0703125 -4.019531 -0.0820312 -4.179688 -0.34375 -4.265625 C -0.539062 -4.328125 -0.722656 -4.316406 -0.890625 -4.234375 C -1.054688 -4.160156 -1.191406 -4.050781 -1.296875 -3.90625 C -1.398438 -3.769531 -1.570312 -3.535156 -1.8125 -3.203125 C -2.457031 -2.304688 -3.191406 -1.992188 -4.015625 -2.265625 C -4.503906 -2.421875 -4.863281 -2.738281 -5.09375 -3.21875 C -5.320312 -3.695312 -5.332031 -4.257812 -5.125 -4.90625 C -4.988281 -5.320312 -4.8125 -5.675781 -4.59375 -5.96875 C -4.382812 -6.257812 -4.125 -6.507812 -3.8125 -6.71875 L -3.1875 -5.921875 C -3.394531 -5.816406 -3.582031 -5.664062 -3.75 -5.46875 C -3.914062 -5.269531 -4.035156 -5.066406 -4.109375 -4.859375 C -4.203125 -4.597656 -4.210938 -4.351562 -4.140625 -4.125 C -4.078125 -3.894531 -3.941406 -3.742188 -3.734375 -3.671875 C -3.546875 -3.609375 -3.375 -3.617188 -3.21875 -3.703125 C -3.0625 -3.785156 -2.9375 -3.882812 -2.84375 -4 C -2.75 -4.113281 -2.578125 -4.34375 -2.328125 -4.6875 C -1.992188 -5.125 -1.660156 -5.429688 -1.328125 -5.609375 C -0.992188 -5.796875 -0.609375 -5.816406 -0.171875 -5.671875 C 0.390625 -5.492188 0.796875 -5.144531 1.046875 -4.625 C 1.296875 -4.101562 1.300781 -3.484375 1.0625 -2.765625 Z M 1.0625 -2.765625 "/></g></g></g><g fill="#000000" fill-opacity="1"><g transform="translate(268.269097, 208.242831)"><g><path d="M -6.453125 -3.6875 L -6.71875 -2.515625 L -10.359375 -3.359375 L -10.078125 -4.578125 Z M -6 -5.640625 L -6.265625 -4.484375 L -9.90625 -5.328125 L -9.625 -6.546875 Z M -6 -5.640625 "/></g></g></g><g clip-path="url(#69ef368251)"><path fill="#000000" d="M 209.425781 198.925781 L 167.09375 198.925781 C 165.410156 198.925781 164.039062 197.566406 164.039062 195.890625 L 164.039062 135.695312 C 164.039062 134.019531 165.410156 132.65625 167.09375 132.65625 L 200.367188 132.65625 C 200.710938 132.65625 201.039062 132.792969 201.28125 133.035156 L 212.101562 143.800781 C 212.34375 144.042969 212.480469 144.371094 212.480469 144.710938 L 212.480469 195.890625 C 212.480469 197.5625 211.109375 198.925781 209.425781 198.925781 Z M 167.09375 135.230469 C 166.839844 135.230469 166.625 135.441406 166.625 135.695312 L 166.625 195.886719 C 166.625 196.140625 166.839844 196.351562 167.09375 196.351562 L 209.425781 196.351562 C 209.679688 196.351562 209.894531 196.140625 209.894531 195.886719 L 209.894531 145.242188 L 199.832031 135.230469 Z M 167.09375 135.230469 " fill-opacity="1" fill-rule="evenodd"/></g><g clip-path="url(#c5c17412fb)"><path fill="#000000" d="M 211.203125 145.996094 L 200.363281 145.996094 C 199.652344 145.996094 199.070312 145.421875 199.070312 144.710938 L 199.070312 133.945312 C 199.070312 132.800781 200.464844 132.222656 201.28125 133.035156 L 211.980469 143.683594 C 213.054688 144.613281 212.300781 145.996094 211.203125 145.996094 Z M 201.660156 143.425781 L 208.066406 143.425781 L 201.660156 137.050781 Z M 201.660156 143.425781 " fill-opacity="1" fill-rule="evenodd"/></g><path fill="#000000" d="M 188.261719 175.410156 C 181.320312 175.410156 175.671875 169.792969 175.671875 162.886719 C 175.671875 155.980469 181.320312 150.359375 188.261719 150.359375 C 195.199219 150.359375 200.847656 155.980469 200.847656 162.886719 C 200.847656 169.792969 195.199219 175.410156 188.261719 175.410156 Z M 188.261719 152.933594 C 182.746094 152.933594 178.257812 157.398438 178.257812 162.886719 C 178.257812 168.375 182.746094 172.839844 188.261719 172.839844 C 193.773438 172.839844 198.261719 168.375 198.261719 162.886719 C 198.261719 157.398438 193.773438 152.933594 188.261719 152.933594 Z M 188.261719 152.933594 " fill-opacity="1" fill-rule="evenodd"/><path fill="#000000" d="M 200.960938 182.960938 L 175.558594 182.960938 C 173.855469 182.960938 173.855469 180.386719 175.558594 180.386719 L 200.960938 180.386719 C 202.660156 180.386719 202.664062 182.960938 200.960938 182.960938 Z M 200.960938 182.960938 " fill-opacity="1" fill-rule="evenodd"/><path fill="#000000" d="M 200.960938 191.460938 L 175.558594 191.460938 C 173.859375 191.460938 173.859375 188.886719 175.558594 188.886719 L 200.960938 188.886719 C 202.660156 188.886719 202.664062 191.460938 200.960938 191.460938 Z M 200.960938 191.460938 " fill-opacity="1" fill-rule="evenodd"/><g clip-path="url(#76595db1a8)"><path fill="#000000" d="M 227.957031 221.210938 L 148.5625 221.210938 C 145.449219 221.210938 142.917969 218.691406 142.917969 215.59375 L 142.917969 157.152344 C 142.917969 154.058594 145.449219 151.539062 148.5625 151.539062 L 165.332031 151.539062 C 167.035156 151.539062 167.035156 154.113281 165.332031 154.113281 L 148.5625 154.113281 C 146.875 154.113281 145.503906 155.476562 145.503906 157.152344 L 145.503906 215.59375 C 145.503906 217.273438 146.875 218.636719 148.5625 218.636719 L 227.957031 218.636719 C 229.644531 218.636719 231.015625 217.273438 231.015625 215.59375 L 231.015625 157.152344 C 231.015625 155.476562 229.644531 154.113281 227.957031 154.113281 L 211.1875 154.113281 C 209.484375 154.113281 209.484375 151.539062 211.1875 151.539062 L 227.957031 151.539062 C 231.070312 151.539062 233.601562 154.058594 233.601562 157.152344 L 233.601562 215.59375 C 233.601562 218.691406 231.070312 221.210938 227.957031 221.210938 Z M 227.957031 221.210938 " fill-opacity="1" fill-rule="evenodd"/></g><path fill="#000000" d="M 205.90625 231.164062 L 170.617188 231.164062 C 169.902344 231.164062 169.324219 230.589844 169.324219 229.878906 L 169.324219 219.925781 C 169.324219 219.214844 169.902344 218.636719 170.617188 218.636719 L 205.90625 218.636719 C 206.621094 218.636719 207.199219 219.214844 207.199219 219.925781 L 207.199219 229.878906 C 207.199219 230.589844 206.621094 231.164062 205.90625 231.164062 Z M 171.910156 228.589844 L 204.613281 228.589844 L 204.613281 221.210938 L 171.910156 221.210938 Z M 171.910156 228.589844 " fill-opacity="1" fill-rule="evenodd"/><g clip-path="url(#fa8c121dba)"><path fill="#000000" d="M 232.308594 208.46875 L 144.210938 208.46875 C 142.511719 208.46875 142.511719 205.894531 144.210938 205.894531 L 232.308594 205.894531 C 234.011719 205.894531 234.011719 208.46875 232.308594 208.46875 Z M 232.308594 208.46875 " fill-opacity="1" fill-rule="evenodd"/></g><path fill="#000000" d="M 224.113281 208.46875 L 152.410156 208.46875 C 151.695312 208.46875 151.117188 207.890625 151.117188 207.183594 L 151.117188 160.546875 C 151.117188 159.835938 151.695312 159.261719 152.410156 159.261719 L 165.332031 159.261719 C 167.035156 159.261719 167.035156 161.835938 165.332031 161.835938 L 153.703125 161.835938 L 153.703125 205.894531 L 222.820312 205.894531 L 222.820312 161.832031 L 211.1875 161.832031 C 209.484375 161.832031 209.484375 159.257812 211.1875 159.257812 L 224.113281 159.257812 C 224.828125 159.257812 225.40625 159.835938 225.40625 160.546875 L 225.40625 207.179688 C 225.40625 207.890625 224.828125 208.46875 224.113281 208.46875 Z M 224.113281 208.46875 " fill-opacity="1" fill-rule="evenodd"/><g clip-path="url(#97c69c960e)"><path fill="#000000" d="M 214.117188 242.464844 L 162.402344 242.464844 C 161.6875 242.464844 161.109375 241.890625 161.109375 241.179688 L 161.109375 229.878906 C 161.109375 229.167969 161.6875 228.589844 162.402344 228.589844 L 214.117188 228.589844 C 214.832031 228.589844 215.410156 229.167969 215.410156 229.878906 L 215.410156 241.179688 C 215.410156 241.890625 214.832031 242.464844 214.117188 242.464844 Z M 163.695312 239.890625 L 212.824219 239.890625 L 212.824219 231.164062 L 163.695312 231.164062 Z M 163.695312 239.890625 " fill-opacity="1" fill-rule="evenodd"/></g><path fill="#000000" d="M 194.105469 214.839844 L 182.417969 214.839844 C 180.714844 214.839844 180.714844 212.265625 182.417969 212.265625 L 194.105469 212.265625 C 195.804688 212.265625 195.808594 214.839844 194.105469 214.839844 Z M 194.105469 214.839844 " fill-opacity="1" fill-rule="evenodd"/><path fill="#000000" d="M 184.886719 166.730469 C 183.695312 166.730469 182.820312 164.484375 181.742188 162.65625 C 180.882812 161.191406 183.113281 159.894531 183.972656 161.351562 L 185.34375 163.683594 L 193.007812 159.214844 C 194.476562 158.363281 195.785156 160.582031 194.316406 161.4375 C 193.066406 162.164062 185.65625 166.730469 184.886719 166.730469 Z M 184.886719 166.730469 " fill-opacity="1" fill-rule="evenodd"/></svg>